<?xml version="1.0" encoding="UTF-8"?><svg id="Layer_1" xmlns="http://www.w3.org/2000/svg" viewBox="0 0 182.59 101.9" ><defs><style>.cls-1{fill:#fff;fill-rule:evenodd;stroke-width:0px;}</style></defs><path class="cls-1" d="M0,83.35h3.18l6.08,9.77h.04v-9.77h3v14.56h-3.2l-6.06-9.75h-.04v9.75H0v-14.56ZM15.15,88.6c.97-.99,2.29-1.5,3.96-1.52,1.68.02,3.01.53,3.98,1.52.97.99,1.47,2.34,1.49,4.05-.02,1.7-.52,3.04-1.49,4.03-.97.99-2.3,1.5-3.98,1.52-1.67-.02-2.99-.53-3.96-1.52-.97-.99-1.46-2.33-1.48-4.03.02-1.7.51-3.05,1.48-4.05ZM16.79,94.26c.16.51.42.93.79,1.25.37.32.88.49,1.53.5.65-.01,1.17-.18,1.55-.5.38-.32.64-.74.8-1.25.16-.51.23-1.05.23-1.62,0-.57-.07-1.12-.23-1.63-.16-.51-.42-.93-.8-1.26-.38-.32-.89-.49-1.55-.5-.65.01-1.16.18-1.53.5-.37.32-.64.74-.79,1.26-.16.51-.23,1.06-.23,1.63,0,.57.07,1.11.23,1.62ZM25.84,97.91h2.89v-4.75c-.01-.95.2-1.75.63-2.39.44-.64,1.18-.97,2.22-1,.18,0,.36,0,.55.03.19.02.35.04.49.07v-2.69c-.09-.03-.2-.06-.31-.07-.11-.02-.22-.03-.32-.03-.72.01-1.39.22-2.01.62-.62.41-1.07.94-1.35,1.62h-.04v-1.96h-2.75v10.54ZM37.86,84.2h-2.89v3.16h-1.75v1.94h1.75v6.22c.03,1.02.36,1.7,1,2.04.64.34,1.41.49,2.33.47.29,0,.58,0,.88-.02.29-.01.57-.04.82-.08v-2.26c-.15.03-.3.05-.45.06-.15.01-.3.02-.45.02-.48.01-.81-.07-.98-.24-.17-.17-.26-.5-.25-.98v-5.22h2.12v-1.94h-2.12v-3.16ZM40.76,97.91h2.89v-5.53c0-1.06.17-1.83.53-2.31.36-.48.93-.71,1.71-.71.67,0,1.14.21,1.43.64.29.43.43,1.08.42,1.95v5.96h2.89v-6.49c.03-1.32-.23-2.37-.77-3.15-.55-.78-1.57-1.18-3.08-1.19-.56,0-1.11.14-1.67.43-.56.29-1.03.73-1.41,1.32h-.06v-5.48h-2.89v14.56ZM57.57,97.91h3.2v-14.56h-3.2v14.56ZM70.01,96.56h-.04c-.34.57-.79.98-1.35,1.24-.56.26-1.17.39-1.85.39-1.06-.01-1.94-.29-2.64-.82-.7-.53-1.22-1.22-1.57-2.07-.35-.85-.52-1.77-.52-2.76,0-.96.17-1.85.52-2.68.35-.82.87-1.49,1.56-2,.69-.51,1.55-.77,2.59-.79.63,0,1.23.13,1.79.39.56.26,1.01.65,1.36,1.17h-.02.04v-5.3h2.89v14.56h-2.75v-1.34ZM69.43,90.29c-.37-.66-1.02-1-1.95-1.03-.94.03-1.6.38-1.99,1.03-.39.66-.58,1.43-.56,2.33,0,.56.09,1.1.26,1.61.18.51.45.93.83,1.26.38.33.86.5,1.46.51.94-.03,1.6-.38,1.96-1.05.37-.67.54-1.45.52-2.35.01-.89-.17-1.66-.54-2.32ZM80.9,92.75c-.26.2-.61.34-1.05.4-.44.07-.9.14-1.36.21-.47.08-.86.23-1.19.45-.33.22-.5.59-.52,1.11.01.53.19.89.54,1.08.34.19.75.28,1.24.27.74-.02,1.28-.18,1.62-.49.34-.31.54-.65.63-1.03.08-.38.12-.68.1-.91v-1.08ZM74.21,90.61c.07-.9.35-1.6.83-2.12.49-.52,1.09-.88,1.82-1.1.73-.21,1.5-.32,2.3-.31.72,0,1.43.06,2.13.22.7.15,1.29.45,1.76.88.47.43.71,1.07.73,1.9v5.49c0,.49.03.95.08,1.37.06.42.15.75.28.97h-2.93c-.05-.16-.1-.33-.13-.5-.04-.17-.06-.34-.07-.52-.47.47-1.01.81-1.64,1.01-.62.2-1.26.3-1.91.29-1.02,0-1.87-.25-2.54-.77-.67-.52-1.02-1.31-1.04-2.39.01-.79.19-1.4.53-1.84.34-.44.79-.76,1.33-.96.54-.2,1.12-.34,1.73-.41.92-.1,1.71-.22,2.38-.35.67-.13,1.02-.48,1.05-1.04-.01-.6-.2-1-.56-1.18-.36-.18-.8-.27-1.32-.25-.56,0-1,.12-1.33.37-.33.25-.53.66-.58,1.22h-2.89ZM85.42,97.91h2.89v-5.53c0-1.06.17-1.83.53-2.31.36-.48.93-.71,1.71-.71.67,0,1.14.21,1.43.64.29.43.43,1.08.42,1.95v5.96h2.89v-6.49c.03-1.32-.23-2.37-.77-3.15-.55-.78-1.57-1.18-3.08-1.19-.56,0-1.11.14-1.67.43-.56.29-1.03.73-1.41,1.32h-.06v-5.48h-2.89v14.56ZM98.04,88.6c.97-.99,2.29-1.5,3.96-1.52,1.68.02,3.01.53,3.98,1.52.97.99,1.47,2.34,1.49,4.05-.02,1.7-.52,3.04-1.49,4.03-.97.99-2.3,1.5-3.98,1.52-1.67-.02-2.99-.53-3.96-1.52-.97-.99-1.46-2.33-1.48-4.03.02-1.7.52-3.05,1.48-4.05ZM99.67,94.26c.15.51.42.93.79,1.25.37.32.88.49,1.53.5.65-.01,1.17-.18,1.55-.5.38-.32.64-.74.8-1.25.16-.51.23-1.05.23-1.62,0-.57-.07-1.12-.23-1.63-.16-.51-.42-.93-.8-1.26-.38-.32-.89-.49-1.55-.5-.65.01-1.16.18-1.53.5-.37.32-.64.74-.79,1.26-.16.51-.23,1.06-.23,1.63,0,.57.07,1.11.23,1.62ZM126.88,88.24c-.14-1.12-.5-2.08-1.09-2.85-.59-.78-1.33-1.37-2.23-1.78-.9-.4-1.89-.61-2.97-.61-1.51.01-2.79.36-3.86,1.03-1.07.67-1.88,1.59-2.44,2.74-.56,1.15-.85,2.46-.85,3.92,0,1.42.29,2.69.85,3.83.57,1.14,1.38,2.04,2.44,2.71,1.06.67,2.35,1.01,3.86,1.03,1.81-.02,3.28-.56,4.42-1.62,1.14-1.06,1.8-2.5,1.99-4.34h-3.1c-.12.98-.46,1.76-1.01,2.35-.55.59-1.32.9-2.29.91-.95-.02-1.72-.26-2.3-.72-.58-.47-1-1.07-1.27-1.81-.26-.74-.39-1.52-.39-2.34,0-.86.12-1.67.39-2.43.26-.75.69-1.37,1.27-1.84.58-.47,1.35-.71,2.3-.73.82.02,1.52.26,2.11.73.59.47.95,1.08,1.07,1.82h3.1ZM129.64,88.6c.97-.99,2.29-1.5,3.96-1.52,1.68.02,3.01.53,3.98,1.52.97.99,1.47,2.34,1.49,4.05-.02,1.7-.52,3.04-1.49,4.03-.97.99-2.3,1.5-3.98,1.52-1.67-.02-2.99-.53-3.96-1.52-.97-.99-1.46-2.33-1.48-4.03.02-1.7.51-3.05,1.48-4.05ZM131.27,94.26c.16.51.42.93.79,1.25.37.32.88.49,1.53.5.66-.01,1.17-.18,1.55-.5.38-.32.64-.74.8-1.25.16-.51.23-1.05.23-1.62,0-.57-.07-1.12-.23-1.63-.16-.51-.42-.93-.8-1.26-.38-.32-.89-.49-1.55-.5-.65.01-1.16.18-1.53.5-.37.32-.64.74-.79,1.26-.15.51-.23,1.06-.22,1.63,0,.57.07,1.11.22,1.62ZM140.41,97.91h2.89v-14.56h-2.89v14.56ZM145.07,97.91h2.89v-14.56h-2.89v14.56ZM152.04,93.34c.04.92.28,1.59.72,2.03.44.44,1.06.65,1.87.65.59-.02,1.1-.16,1.51-.44.41-.28.67-.59.78-.93h2.55c-.41,1.24-1.04,2.14-1.88,2.71-.84.57-1.86.85-3.06.84-1.68-.03-2.99-.54-3.94-1.55-.95-1.01-1.43-2.34-1.44-4,0-1.06.23-2.01.68-2.85.45-.83,1.07-1.49,1.88-1.98.8-.48,1.74-.73,2.82-.74,1.2.02,2.19.32,2.97.9.78.58,1.35,1.35,1.71,2.29.36.94.51,1.97.44,3.06h-7.61ZM156.75,91.5c-.12-.74-.36-1.29-.72-1.67-.36-.38-.89-.57-1.58-.57-.61.01-1.08.15-1.43.4-.35.25-.59.55-.74.9-.15.35-.22.66-.23.94h4.71ZM170.87,97.23c.02.6-.09,1.26-.34,1.98-.25.72-.77,1.34-1.55,1.86-.79.52-1.98.8-3.57.83-.71,0-1.41-.11-2.1-.34-.69-.23-1.27-.6-1.74-1.09-.47-.5-.74-1.15-.81-1.95h2.87c.14.53.41.91.8,1.13.39.22.84.33,1.36.32.8-.02,1.39-.26,1.77-.74.38-.48.56-1.1.55-1.87v-1.39h-.04c-.33.55-.78.96-1.34,1.23-.57.27-1.17.4-1.82.4-1.05-.01-1.91-.26-2.57-.73-.67-.48-1.15-1.11-1.47-1.91-.31-.8-.47-1.68-.47-2.66,0-.92.17-1.78.52-2.57.34-.79.85-1.42,1.52-1.91.67-.48,1.5-.73,2.49-.75.69,0,1.31.12,1.83.39.53.26.96.7,1.31,1.3h.04v-1.41h2.75v9.87ZM167.51,94.53c.41-.57.62-1.24.61-2.02.02-.89-.16-1.64-.53-2.27-.37-.62-1.01-.95-1.94-.98-.81.03-1.41.33-1.79.91-.38.58-.56,1.28-.56,2.09,0,.51.07,1.01.22,1.49.15.48.39.88.73,1.19.34.31.81.47,1.4.48.83-.03,1.44-.32,1.85-.89ZM174.97,93.34c.04.92.28,1.59.72,2.03.44.44,1.06.65,1.87.65.59-.02,1.1-.16,1.51-.44.41-.28.67-.59.78-.93h2.55c-.41,1.24-1.04,2.14-1.88,2.71-.84.57-1.86.85-3.06.84-1.68-.03-2.99-.54-3.94-1.55-.95-1.01-1.43-2.34-1.44-4,0-1.06.24-2.01.68-2.85.45-.83,1.08-1.49,1.88-1.98.81-.48,1.74-.73,2.82-.74,1.2.02,2.19.32,2.97.9.78.58,1.35,1.35,1.71,2.29.36.94.51,1.97.44,3.06h-7.61ZM179.68,91.5c-.12-.74-.37-1.29-.72-1.67-.36-.38-.89-.57-1.58-.57-.61.01-1.08.15-1.43.4-.35.25-.59.55-.74.9-.15.35-.23.66-.23.94h4.71Z"/><path class="cls-1" d="M40.26,76.25L76.66,14.04l6.28,9.38L96.82,0l44.07,70.33c-12.16-1.26-17.33-5.31-35.82.09-8.9,2.6-17.79,1.46-22.12.24-8.46-2.37-17.79-3.04-25.1-2.8,0,0,2.41-2.38,8.53-2.38h68.69L96.82,4.46l-13.87,23.42-6.28-9.38-30.96,53.11c8.32-3.06,22.38-3.33,37.25.82,4.33,1.21,13.22,2.32,22.12-.24,18.97-5.47,23.91-1.14,36.73,0l.27.02,2.55,4.06H40.26ZM97.19,30.86c1.51,2.23-.67,4.66-2.52,6.3.76.38.88.5,1.68.84-.34,2.9-2.56,5.5-4.2,6.72.76.38.88.5,1.68.84-.46,2.77-1.6,4.08-2.94,5.88.67.42.84.5,1.68.84-1.01,2.14-2.48,3.24-4.2,4.62.46.46.76,1.14.76,1.14,0,0-2.82,1.97-5.13,2.65.5,1.05.93,1.85.93,1.85,0,0-2.06,1.07-3.28,1.32h39.08c-2.44-.71-6.77-2.66-4.2-3.59-2.19-.84-5.67-4.58-5.88-7.14.5-.38.88-.71,1.26-1.26-2.61-1.01-4.83-4.83-5.88-7.14.59-.42,1.05-.63,1.68-.84-2.02-2.69-4.87-5.08-2.1-7.56-2.02-.93-4.79-4.79-3.36-6.72-1.39-1.47-1.97-2.4-2.52-4.2-.13,2.69-.88,4.03-2.52,5.46ZM81.64,41.78c-.67,1.3-1.22,2.14-2.52,2.94,1.09,2.39.25,3.61-2.1,5.04.55.76.88,1.13,1.26,2.1-2.23,1.64-3.32,2.98-5.88,4.2.67.42.84.5,1.68.84-.67,1.72-2.69,3.07-4.2,3.78.38,1.85-1.6,2.67-3.36,3.17,7.06-.04,13.45.5,17.19-1.85-.38-1.09-.8-1.74-.8-1.74,0,0,3.7-1.09,5.09-2.44-.34-.67-.76-1.18-.76-1.18,0,0,3.82-2.35,4.08-4.08-1.47-.42-7.06-4.16-5.04-4.92-1.51-1.14-3.28-2.6-2.1-4.2-1.34-1.09-1.72-2.23-2.1-3.78-.04.93-.08,1.35-.42,2.1Z"/></svg>