<?xml version="1.0" encoding="utf-8"?>
<!-- Generator: Adobe Illustrator 28.1.0, SVG Export Plug-In . SVG Version: 6.00 Build 0)  -->
<svg version="1.1" id="Layer_1" xmlns="http://www.w3.org/2000/svg" xmlns:xlink="http://www.w3.org/1999/xlink" x="0px" y="0px"
	 viewBox="0 0 268.19 124.75" style="enable-background:new 0 0 268.19 124.75;" xml:space="preserve">
<style type="text/css">
	.st0{fill:#FFFFFF;}
	.st1{fill-rule:evenodd;clip-rule:evenodd;fill:#010101;}
	.st2{fill-rule:evenodd;clip-rule:evenodd;fill:#98002E;}
</style>
<rect class="st0" width="268.19" height="124.75"/>
<g>
	<path class="st1" d="M42.8,94.77h3.18l6.08,9.77h0.04v-9.77h3v14.56h-3.2l-6.06-9.75h-0.04v9.75h-3V94.77z M57.95,100.02
		c0.97-0.99,2.29-1.5,3.96-1.52c1.68,0.02,3.01,0.53,3.98,1.52c0.97,0.99,1.47,2.34,1.49,4.05c-0.02,1.7-0.52,3.04-1.49,4.03
		c-0.97,0.99-2.3,1.5-3.98,1.52c-1.67-0.02-2.99-0.53-3.96-1.52c-0.97-0.99-1.46-2.33-1.48-4.03
		C56.49,102.36,56.98,101.01,57.95,100.02z M59.59,105.68c0.16,0.51,0.42,0.93,0.79,1.25c0.37,0.32,0.88,0.49,1.53,0.5
		c0.65-0.01,1.17-0.18,1.55-0.5c0.38-0.32,0.64-0.74,0.8-1.25c0.16-0.51,0.23-1.05,0.23-1.62c0-0.57-0.07-1.12-0.23-1.63
		c-0.16-0.51-0.42-0.93-0.8-1.26c-0.38-0.32-0.89-0.49-1.55-0.5c-0.65,0.01-1.16,0.18-1.53,0.5c-0.37,0.32-0.64,0.74-0.79,1.26
		c-0.16,0.51-0.23,1.06-0.23,1.63C59.36,104.64,59.43,105.17,59.59,105.68z M68.64,109.33h2.89v-4.75c-0.01-0.95,0.2-1.75,0.63-2.39
		c0.44-0.64,1.18-0.97,2.22-1c0.18,0,0.36,0.01,0.55,0.03c0.19,0.02,0.35,0.04,0.49,0.07V98.6c-0.09-0.03-0.2-0.06-0.31-0.07
		c-0.11-0.02-0.22-0.03-0.32-0.03c-0.72,0.01-1.39,0.22-2.01,0.62c-0.62,0.41-1.07,0.94-1.35,1.62h-0.04v-1.96h-2.75V109.33z
		 M80.65,95.62h-2.89v3.16h-1.75v1.94h1.75v6.22c0.03,1.02,0.36,1.7,1,2.04c0.64,0.34,1.41,0.49,2.33,0.47
		c0.29,0,0.58-0.01,0.88-0.02c0.29-0.01,0.57-0.04,0.82-0.08v-2.26c-0.15,0.03-0.3,0.05-0.45,0.06c-0.15,0.01-0.3,0.02-0.45,0.02
		c-0.48,0.01-0.81-0.07-0.98-0.24c-0.17-0.17-0.26-0.5-0.25-0.98v-5.22h2.12v-1.94h-2.12V95.62z M83.55,109.33h2.89v-5.53
		c-0.01-1.06,0.17-1.83,0.53-2.31c0.36-0.48,0.93-0.71,1.71-0.71c0.67,0,1.14,0.21,1.43,0.64c0.29,0.43,0.43,1.08,0.42,1.95v5.96
		h2.89v-6.49c0.03-1.32-0.23-2.37-0.77-3.15c-0.55-0.78-1.57-1.18-3.08-1.19c-0.56,0-1.11,0.14-1.67,0.43
		c-0.56,0.29-1.03,0.73-1.41,1.32h-0.06v-5.48h-2.89V109.33z M100.37,109.33h3.2V94.77h-3.2V109.33z M112.81,107.98h-0.04
		c-0.34,0.57-0.79,0.98-1.35,1.24c-0.56,0.26-1.17,0.39-1.85,0.39c-1.06-0.01-1.94-0.29-2.64-0.82c-0.7-0.53-1.22-1.22-1.57-2.07
		c-0.35-0.85-0.52-1.77-0.52-2.76c0-0.96,0.17-1.85,0.52-2.68c0.35-0.82,0.87-1.49,1.56-2c0.69-0.51,1.55-0.77,2.59-0.79
		c0.63,0,1.23,0.13,1.79,0.39c0.56,0.26,1.01,0.65,1.36,1.17h-0.02h0.04v-5.3h2.89v14.56h-2.75V107.98z M112.23,101.71
		c-0.37-0.66-1.02-1-1.95-1.03c-0.94,0.03-1.6,0.38-1.99,1.03c-0.39,0.66-0.58,1.43-0.56,2.33c0,0.56,0.09,1.1,0.26,1.61
		c0.18,0.51,0.45,0.93,0.83,1.26c0.38,0.33,0.86,0.5,1.46,0.51c0.94-0.03,1.6-0.38,1.96-1.05c0.37-0.67,0.54-1.45,0.52-2.35
		C112.78,103.14,112.6,102.37,112.23,101.71z M123.7,104.17c-0.26,0.2-0.61,0.34-1.05,0.4c-0.44,0.07-0.9,0.14-1.36,0.21
		c-0.47,0.08-0.86,0.23-1.19,0.45c-0.33,0.22-0.5,0.59-0.52,1.11c0.01,0.53,0.19,0.89,0.54,1.08c0.34,0.19,0.75,0.28,1.24,0.27
		c0.74-0.02,1.28-0.18,1.62-0.49c0.34-0.31,0.54-0.65,0.63-1.03c0.08-0.38,0.12-0.68,0.1-0.91V104.17z M117.01,102.03
		c0.07-0.9,0.35-1.6,0.83-2.12c0.49-0.52,1.09-0.88,1.82-1.1c0.73-0.21,1.5-0.32,2.3-0.31c0.72-0.01,1.43,0.06,2.13,0.22
		c0.7,0.15,1.29,0.45,1.76,0.88c0.47,0.43,0.71,1.07,0.73,1.9v5.49c0,0.49,0.03,0.95,0.08,1.37c0.06,0.42,0.15,0.75,0.28,0.97h-2.93
		c-0.05-0.16-0.1-0.33-0.13-0.5c-0.04-0.17-0.06-0.34-0.07-0.52c-0.47,0.47-1.01,0.81-1.64,1.01c-0.62,0.2-1.26,0.3-1.91,0.29
		c-1.02,0-1.87-0.25-2.54-0.77c-0.67-0.52-1.02-1.31-1.04-2.39c0.01-0.79,0.19-1.4,0.53-1.84c0.34-0.44,0.79-0.76,1.33-0.96
		c0.54-0.2,1.12-0.34,1.73-0.41c0.92-0.1,1.71-0.22,2.38-0.35c0.67-0.13,1.02-0.48,1.05-1.04c-0.01-0.6-0.2-1-0.56-1.18
		c-0.36-0.18-0.8-0.27-1.32-0.25c-0.56-0.01-1,0.12-1.33,0.37c-0.33,0.25-0.53,0.66-0.58,1.22L117.01,102.03z M128.21,109.33h2.89
		v-5.53c0-1.06,0.17-1.83,0.53-2.31c0.36-0.48,0.93-0.71,1.71-0.71c0.67,0,1.14,0.21,1.43,0.64c0.29,0.43,0.43,1.08,0.42,1.95v5.96
		h2.89v-6.49c0.03-1.32-0.23-2.37-0.77-3.15c-0.55-0.78-1.57-1.18-3.08-1.19c-0.56,0-1.11,0.14-1.67,0.43
		c-0.56,0.29-1.03,0.73-1.41,1.32h-0.06v-5.48h-2.89V109.33z M140.83,100.02c0.97-0.99,2.29-1.5,3.96-1.52
		c1.68,0.02,3.01,0.53,3.98,1.52c0.97,0.99,1.47,2.34,1.49,4.05c-0.02,1.7-0.52,3.04-1.49,4.03c-0.97,0.99-2.3,1.5-3.98,1.52
		c-1.67-0.02-2.99-0.53-3.96-1.52c-0.97-0.99-1.46-2.33-1.48-4.03C139.37,102.36,139.87,101.01,140.83,100.02z M142.47,105.68
		c0.15,0.51,0.42,0.93,0.79,1.25c0.37,0.32,0.88,0.49,1.53,0.5c0.65-0.01,1.17-0.18,1.55-0.5c0.38-0.32,0.64-0.74,0.8-1.25
		c0.16-0.51,0.23-1.05,0.23-1.62c0.01-0.57-0.07-1.12-0.23-1.63c-0.16-0.51-0.42-0.93-0.8-1.26c-0.38-0.32-0.89-0.49-1.55-0.5
		c-0.65,0.01-1.16,0.18-1.53,0.5c-0.37,0.32-0.64,0.74-0.79,1.26c-0.16,0.51-0.23,1.06-0.23,1.63
		C142.24,104.64,142.32,105.17,142.47,105.68z M169.68,99.66c-0.14-1.12-0.5-2.08-1.09-2.85c-0.59-0.78-1.33-1.37-2.23-1.78
		c-0.9-0.4-1.89-0.61-2.97-0.61c-1.51,0.01-2.79,0.36-3.86,1.03c-1.07,0.67-1.88,1.59-2.44,2.74c-0.56,1.15-0.85,2.46-0.85,3.92
		c0.01,1.42,0.29,2.69,0.85,3.83c0.57,1.14,1.38,2.04,2.44,2.71c1.06,0.67,2.35,1.01,3.86,1.03c1.81-0.02,3.28-0.56,4.42-1.62
		c1.14-1.06,1.8-2.5,1.99-4.34h-3.1c-0.12,0.98-0.46,1.76-1.01,2.35c-0.55,0.59-1.32,0.9-2.29,0.91c-0.95-0.02-1.72-0.26-2.3-0.72
		c-0.58-0.47-1-1.07-1.27-1.81c-0.26-0.74-0.39-1.52-0.39-2.34c0-0.86,0.12-1.67,0.39-2.43c0.26-0.75,0.69-1.37,1.27-1.84
		c0.58-0.47,1.35-0.71,2.3-0.73c0.82,0.02,1.52,0.26,2.11,0.73c0.59,0.47,0.95,1.08,1.07,1.82H169.68z M172.44,100.02
		c0.97-0.99,2.29-1.5,3.96-1.52c1.68,0.02,3.01,0.53,3.98,1.52c0.97,0.99,1.47,2.34,1.49,4.05c-0.02,1.7-0.52,3.04-1.49,4.03
		c-0.97,0.99-2.3,1.5-3.98,1.52c-1.67-0.02-2.99-0.53-3.96-1.52c-0.97-0.99-1.46-2.33-1.48-4.03
		C170.97,102.36,171.47,101.01,172.44,100.02z M174.07,105.68c0.16,0.51,0.42,0.93,0.79,1.25c0.37,0.32,0.88,0.49,1.53,0.5
		c0.66-0.01,1.17-0.18,1.55-0.5c0.38-0.32,0.64-0.74,0.8-1.25c0.16-0.51,0.23-1.05,0.23-1.62c0.01-0.57-0.07-1.12-0.23-1.63
		c-0.16-0.51-0.42-0.93-0.8-1.26c-0.38-0.32-0.89-0.49-1.55-0.5c-0.65,0.01-1.16,0.18-1.53,0.5c-0.37,0.32-0.64,0.74-0.79,1.26
		c-0.15,0.51-0.23,1.06-0.22,1.63C173.84,104.64,173.92,105.17,174.07,105.68z M183.2,109.33h2.89V94.77h-2.89V109.33z
		 M187.87,109.33h2.89V94.77h-2.89V109.33z M194.84,104.76c0.04,0.92,0.28,1.59,0.72,2.03c0.44,0.44,1.06,0.65,1.87,0.65
		c0.59-0.02,1.1-0.16,1.51-0.44c0.41-0.28,0.67-0.59,0.78-0.93h2.55c-0.41,1.24-1.04,2.14-1.88,2.71c-0.84,0.57-1.86,0.85-3.06,0.84
		c-1.68-0.03-2.99-0.54-3.94-1.55c-0.95-1.01-1.43-2.34-1.44-4c0.01-1.06,0.23-2.01,0.68-2.85c0.45-0.83,1.07-1.49,1.88-1.98
		c0.8-0.48,1.74-0.73,2.82-0.74c1.2,0.02,2.19,0.32,2.97,0.9c0.78,0.58,1.35,1.35,1.71,2.29c0.36,0.94,0.51,1.97,0.44,3.06H194.84z
		 M199.55,102.93c-0.12-0.74-0.36-1.29-0.72-1.67c-0.36-0.38-0.89-0.57-1.58-0.57c-0.61,0.01-1.08,0.15-1.43,0.4
		c-0.35,0.25-0.59,0.55-0.74,0.9c-0.15,0.35-0.22,0.66-0.23,0.94H199.55z M213.67,108.66c0.02,0.6-0.09,1.26-0.34,1.98
		c-0.25,0.72-0.77,1.34-1.55,1.86c-0.79,0.52-1.98,0.8-3.57,0.83c-0.71,0-1.41-0.11-2.1-0.34c-0.69-0.23-1.27-0.6-1.74-1.09
		c-0.47-0.5-0.74-1.15-0.81-1.95h2.87c0.14,0.53,0.41,0.91,0.8,1.13c0.39,0.22,0.84,0.33,1.36,0.32c0.8-0.02,1.39-0.26,1.77-0.74
		c0.38-0.48,0.56-1.1,0.55-1.87v-1.39h-0.04c-0.33,0.55-0.78,0.96-1.34,1.23c-0.57,0.27-1.17,0.4-1.82,0.4
		c-1.05-0.01-1.91-0.26-2.57-0.73c-0.67-0.48-1.15-1.11-1.47-1.91c-0.31-0.8-0.47-1.68-0.47-2.66c0-0.92,0.17-1.78,0.52-2.57
		c0.34-0.79,0.85-1.42,1.52-1.91c0.67-0.48,1.5-0.73,2.49-0.75c0.69-0.01,1.31,0.12,1.83,0.39c0.53,0.26,0.96,0.7,1.31,1.3h0.04
		v-1.41h2.75V108.66z M210.3,105.95c0.41-0.57,0.62-1.24,0.61-2.02c0.02-0.89-0.16-1.64-0.53-2.27c-0.37-0.62-1.01-0.95-1.94-0.98
		c-0.81,0.03-1.41,0.33-1.79,0.91c-0.38,0.58-0.56,1.28-0.56,2.09c0,0.51,0.07,1.01,0.22,1.49c0.15,0.48,0.39,0.88,0.73,1.19
		c0.34,0.31,0.81,0.47,1.4,0.48C209.28,106.82,209.9,106.52,210.3,105.95z M217.77,104.76c0.04,0.92,0.28,1.59,0.72,2.03
		c0.44,0.44,1.06,0.65,1.87,0.65c0.59-0.02,1.1-0.16,1.51-0.44c0.41-0.28,0.67-0.59,0.78-0.93h2.55c-0.41,1.24-1.04,2.14-1.88,2.71
		c-0.84,0.57-1.86,0.85-3.06,0.84c-1.68-0.03-2.99-0.54-3.94-1.55c-0.95-1.01-1.43-2.34-1.44-4c0.01-1.06,0.24-2.01,0.68-2.85
		c0.45-0.83,1.08-1.49,1.88-1.98c0.81-0.48,1.74-0.73,2.82-0.74c1.2,0.02,2.19,0.32,2.97,0.9c0.78,0.58,1.35,1.35,1.71,2.29
		c0.36,0.94,0.51,1.97,0.44,3.06H217.77z M222.48,102.93c-0.12-0.74-0.37-1.29-0.72-1.67c-0.36-0.38-0.89-0.57-1.58-0.57
		c-0.61,0.01-1.08,0.15-1.43,0.4c-0.35,0.25-0.59,0.55-0.74,0.9c-0.15,0.35-0.23,0.66-0.23,0.94H222.48z"/>
	<g>
		<path class="st2" d="M83.06,87.67l36.4-62.21l6.28,9.38l13.87-23.42l44.07,70.32c-12.16-1.26-17.33-5.31-35.83,0.09
			c-8.9,2.6-17.79,1.46-22.12,0.24c-8.46-2.37-17.79-3.05-25.1-2.8c0,0,2.41-2.38,8.53-2.38h68.69l-38.25-61.02L125.74,39.3
			l-6.28-9.38l-30.96,53.1c8.32-3.06,22.38-3.33,37.25,0.82c4.33,1.21,13.22,2.32,22.12-0.24c18.97-5.47,23.91-1.14,36.73,0
			c0.06,0.01,0.15,0.01,0.27,0.02l2.55,4.06H83.06z"/>
		<path class="st2" d="M142.51,36.82c0.55,1.81,1.14,2.73,2.52,4.2c-1.43,1.93,1.34,5.8,3.36,6.72c-2.77,2.48,0.08,4.87,2.1,7.56
			c-0.63,0.21-1.09,0.42-1.68,0.84c1.05,2.31,3.28,6.14,5.88,7.14c-0.38,0.55-0.76,0.88-1.26,1.26c0.21,2.56,3.7,6.3,5.88,7.14
			c-2.56,0.92,1.77,2.87,4.2,3.59h-39.08c1.22-0.25,3.28-1.32,3.28-1.32s-0.42-0.8-0.92-1.85c2.31-0.67,5.13-2.65,5.13-2.65
			s-0.29-0.67-0.76-1.14c1.72-1.39,3.19-2.48,4.2-4.62c-0.84-0.34-1.01-0.42-1.68-0.84c1.34-1.81,2.48-3.11,2.94-5.88
			c-0.8-0.34-0.92-0.46-1.68-0.84c1.64-1.22,3.87-3.82,4.2-6.72c-0.8-0.34-0.92-0.46-1.68-0.84c1.85-1.64,4.03-4.08,2.52-6.3
			C141.62,40.85,142.38,39.51,142.51,36.82z"/>
		<path class="st2" d="M124.86,51.11c0.38,1.55,0.76,2.69,2.1,3.78c-1.18,1.6,0.59,3.07,2.1,4.2c-2.02,0.76,3.57,4.5,5.04,4.92
			c-0.25,1.72-4.08,4.08-4.08,4.08s0.42,0.5,0.76,1.18c-1.39,1.34-5.08,2.44-5.08,2.44s0.42,0.65,0.8,1.74
			c-3.74,2.35-10.13,1.81-17.19,1.85c1.77-0.5,3.74-1.32,3.36-3.17c1.51-0.71,3.53-2.06,4.2-3.78c-0.84-0.34-1.01-0.42-1.68-0.84
			c2.56-1.22,3.66-2.56,5.88-4.2c-0.38-0.97-0.71-1.34-1.26-2.1c2.35-1.43,3.19-2.65,2.1-5.04c1.3-0.8,1.85-1.64,2.52-2.94
			C124.77,52.45,124.82,52.03,124.86,51.11z"/>
	</g>
</g>
</svg>
